<svg width="24" height="24" viewBox="0 0 24 24" fill="none" xmlns="http://www.w3.org/2000/svg">
<path d="M18.6 19.5H21V21.5H15V15.5H17V18.23C18.83 16.76 20 14.52 20 12C20 7.93005 16.94 4.56005 13 4.07005V2.05005C18.05 2.55005 22 6.81005 22 12C22 14.99 20.68 17.67 18.6 19.5ZM4 12C4 9.48005 5.17 7.23005 7 5.77005V8.50005H9V2.50005H3V4.50005H5.4C3.32 6.33005 2 9.01005 2 12C2 17.19 5.95 21.4501 11 21.9501V19.93C7.06 19.44 4 16.07 4 12Z" fill="#E6E6E6"/>
<path d="M12 8C13.6756 8.78193 14.9378 10.7104 14.9941 13.0381C14.9974 13.0917 15 13.1458 15 13.2002C14.9999 14.7465 13.6568 16 12 16C10.3432 16 9.00011 14.7465 9 13.2002C9 13.1389 9.00268 13.0779 9.00684 13.0176C9.08151 11.0564 10.3376 8.7758 12 8Z" fill="#E6E6E6"/>
</svg>
